<svg xmlns="http://www.w3.org/2000/svg" viewBox="0 0 32 32">
  <rect width="32" height="32" fill="#4F46E5"/>
  <g transform="translate(16, 16) scale(1.4) translate(-16, -16)">
    <path d="M24 16.5c0-1.5-1-2.8-2.4-3.2-.2-2.3-2.1-4.1-4.4-4.1-1.7 0-3.2 1-4 2.4-.3-.1-.6-.1-.9-.1-2.1 0-3.8 1.7-3.8 3.8 0 .3 0 .6.1.9C7.6 16.6 7 17.5 7 18.5c0 1.7 1.3 3 3 3h13c1.7 0 3-1.3 3-3 0-1.4-1-2.6-2.4-2.9-.4-.1-.6-.1-.6-.1z" fill="white"/>
    <path d="M14.5 15v4m0 0l-1.2-1.2m1.2 1.2l1.2-1.2" stroke="#4F46E5" stroke-width="1.3" stroke-linecap="round" stroke-linejoin="round"/>
    <path d="M17.5 17v-4m0 0l-1.2 1.2m1.2-1.2l1.2 1.2" stroke="#4F46E5" stroke-width="1.3" stroke-linecap="round" stroke-linejoin="round"/>
  </g>
</svg>